<svg xmlns="http://www.w3.org/2000/svg" width="100%" height="100%" viewBox="0 0 268.281 175.995">
    <g id="Groupe_444" data-name="Groupe 444" transform="translate(0 0)">
      <g id="Groupe_391" data-name="Groupe 391" transform="translate(105.136 0)">
        <path id="Tracé_769" data-name="Tracé 769" d="M941.3,440.73H842.071V341.3l49.616-37.539L941.3,341.3Z" transform="translate(-824.25 -285.302)" fill="#f0f6ff"/>
        <path id="Tracé_770" data-name="Tracé 770" d="M1485.284,537.42c-.083.723-.155,1.448-.206,2.173-.082,1.156-.119,2.333-.155,3.473a41.8,41.8,0,0,1-.563,6.691,12.225,12.225,0,0,1,1.968.558,42.593,42.593,0,0,0,.636-7.185c.036-1.12.072-2.277.151-3.392.021-.292.045-.585.072-.879Z" transform="translate(-1372.754 -484.843)" fill="#c9e0ff"/>
        <path id="Tracé_771" data-name="Tracé 771" d="M1340.324,366.216c-.039.113-.082.237-.131.376-.447,1.254-1.51,2.43-2.79,2.048-1.222-.365-2.314-1.526-3.245-3.452a41.379,41.379,0,0,1-2.6-8.021,48.021,48.021,0,0,0-2.4-7.669,51.377,51.377,0,0,0-4.313-7.407c-2.8-4.247-5.445-8.258-5.44-12.954.006-4.609,2.894-9.094,6.866-10.665l.028-.011V316.29c-.267.091-.529.185-.779.284a13.622,13.622,0,0,0-8.158,12.561c-.007,5.31,2.933,9.769,5.777,14.081a49.9,49.9,0,0,1,4.149,7.105,46.5,46.5,0,0,1,2.289,7.346,43.568,43.568,0,0,0,2.745,8.411c1.208,2.5,2.68,3.976,4.5,4.519a3.759,3.759,0,0,0,1.081.162c1.959,0,3.552-1.614,4.217-3.482.064-.179.12-.34.169-.485A6.786,6.786,0,0,0,1340.324,366.216Z" transform="translate(-1230.138 -296.002)" fill="#c9e0ff"/>
        <path id="Tracé_772" data-name="Tracé 772" d="M1398.535,659.077l-3.095-12.792a12.194,12.194,0,0,0,3.095-2.315V626.885a12.258,12.258,0,1,0-8.893,20.8l8.893,36.759Zm-7.192-17.042a6.8,6.8,0,1,1,5.008-8.2A6.8,6.8,0,0,1,1391.343,642.035Z" transform="translate(-1281.484 -558.07)" fill="#c9e0ff"/>
        <rect id="Rectangle_136" data-name="Rectangle 136" width="99.231" height="13.897" transform="translate(17.82 141.532)" fill="#c9e0ff"/>
        <path id="Tracé_773" data-name="Tracé 773" d="M854.9,246.829l-67.436-51.022-67.436,51.022V228.371l67.436-51.022L854.9,228.371Z" transform="translate(-720.027 -177.349)" fill="#4a6687"/>
        <path id="Tracé_774" data-name="Tracé 774" d="M854.9,334.87l-67.436-51.022L720.027,334.87v-3.4l67.436-51.022L854.9,331.466Z" transform="translate(-720.027 -265.39)" fill="#3a506b"/>
        <rect id="Rectangle_137" data-name="Rectangle 137" width="30.714" height="64.11" transform="translate(36.722 91.319)" fill="#ff9f1c"/>
        <rect id="Rectangle_138" data-name="Rectangle 138" width="61.982" height="26.46" transform="translate(65.309 93.446) rotate(90)" fill="#ffc857"/>
        <rect id="Rectangle_139" data-name="Rectangle 139" width="13.616" height="26.46" transform="translate(65.309 141.813) rotate(90)" fill="#ffbc33"/>
        <g id="Groupe_389" data-name="Groupe 389" transform="translate(55.767 42.173)">
          <rect id="Rectangle_141" data-name="Rectangle 141" width="18.909" height="22.18" transform="translate(2.215 3.11)" fill="#c4fffe"/>
          <rect id="Rectangle_142" data-name="Rectangle 142" width="18.909" height="4.419" transform="translate(2.215 3.11)" fill="#b0e6e5"/>
          <rect id="Rectangle_143" data-name="Rectangle 143" width="18.909" height="22.18" transform="translate(2.215 3.11)" fill="none" stroke="#6388b5" stroke-miterlimit="10" stroke-width="10"/>
          <rect id="Rectangle_144" data-name="Rectangle 144" width="23.338" height="6.221" fill="#4a6687"/>
          <rect id="Rectangle_145" data-name="Rectangle 145" width="23.338" height="1.821" transform="translate(0 4.4)" fill="#3a506b"/>
          <rect id="Rectangle_146" data-name="Rectangle 146" width="23.338" height="1.821" transform="translate(0 25.972)" fill="#4a6687"/>
          <path id="Tracé_775" data-name="Tracé 775" d="M1127.376,508.773h-2.553v8.258h-8.258v2.552h8.258v8.258h2.553v-8.258h8.258v-2.552h-8.258Z" transform="translate(-1114.431 -502.552)" fill="#6388b5"/>
        </g>
        <path id="Tracé_776" data-name="Tracé 776" d="M1385.551,226.868Z" transform="translate(-1288.373 -219.637)" fill="#f0f6ff"/>
        <path id="Tracé_777" data-name="Tracé 777" d="M842.071,352.765l49.616-41.524L941.3,345.754V341.3L891.686,303.76,842.071,341.3Z" transform="translate(-824.25 -285.302)" fill="#c9e0ff"/>
        <ellipse id="Ellipse_24" data-name="Ellipse 24" cx="1.55" cy="1.55" rx="1.55" ry="1.55" transform="translate(57.982 116.609)" fill="#ff9f1c"/>
        <g id="Groupe_390" data-name="Groupe 390" transform="translate(80.945 91.198)">
          <rect id="Rectangle_147" data-name="Rectangle 147" width="18.909" height="22.18" transform="translate(2.215 3.11)" fill="#c4fffe"/>
          <rect id="Rectangle_148" data-name="Rectangle 148" width="18.909" height="4.419" transform="translate(2.215 3.11)" fill="#b0e6e5"/>
          <rect id="Rectangle_149" data-name="Rectangle 149" width="18.909" height="22.18" transform="translate(2.215 3.11)" fill="none" stroke="#6388b5" stroke-miterlimit="10" stroke-width="10"/>
          <rect id="Rectangle_150" data-name="Rectangle 150" width="23.338" height="6.221" fill="#4a6687"/>
          <rect id="Rectangle_151" data-name="Rectangle 151" width="23.338" height="1.821" transform="translate(0 4.4)" fill="#3a506b"/>
          <rect id="Rectangle_152" data-name="Rectangle 152" width="23.338" height="1.821" transform="translate(0 25.972)" fill="#4a6687"/>
          <path id="Tracé_778" data-name="Tracé 778" d="M1299.805,844.52h-2.552v8.259h-8.258v2.552h8.258v8.258h2.552v-8.258h8.259v-2.552h-8.259Z" transform="translate(-1286.86 -838.299)" fill="#6388b5"/>
        </g>
      </g>
      <path id="Tracé_779" data-name="Tracé 779" d="M1427.806,674.37l-.5-2.073a1.917,1.917,0,0,0-2.314-1.412l-5.885,1.424-1.129-4.664,5.886-1.424a1.917,1.917,0,0,0,1.412-2.314l-.5-2.073a1.917,1.917,0,0,0-2.314-1.412l-5.885,1.424-7.148-29.547a12.259,12.259,0,1,0-5.8,1.4l11.856,49a2.983,2.983,0,0,0,5.8-1.4l-.773-3.194,5.886-1.424A1.917,1.917,0,0,0,1427.806,674.37Zm-22.478-46.321a6.8,6.8,0,1,1,5.008-8.2A6.8,6.8,0,0,1,1405.328,628.049Z" transform="translate(-1188.29 -546.127)" fill="#ffc857"/>
      <path id="Tracé_780" data-name="Tracé 780" d="M677.9,1039.387c-11.478,3.443-26.4,6.886-32.137,7.652-4.03.537-12.4-1.755-20.208-3.169.126-.078.252-.157.373-.235,4.9-3.17,18.155-15.273,22.766-16.714s1.441-6.052-2.882-7.781c-12.968-5.764-30.835,10.086-34.87,10.086s-17.291-7.493-31.988-7.493-27.377,9.51-32.276,9.51-39.512,26.125-39.512,26.125h-4.491s32.52,1.148,45.91,4.208,56.24,9.565,64.657,9.565,40.554-10.33,48.206-11.86,32.52-11.86,35.58-14.538S689.375,1035.943,677.9,1039.387Z" transform="translate(-429.275 -895.147)" fill="#f7a466"/>
      <path id="Tracé_781" data-name="Tracé 781" d="M1177.678,1194.276s-11.341,6.248-15.6,6.248-11.314.4-13.311,1.464c0,0,10.516.58,15.707.356s17.729-6.872,17.729-6.872Z" transform="translate(-981.027 -1045.787)" fill="#e58645"/>
      <path id="Tracé_782" data-name="Tracé 782" d="M0,1038.522l110.252,10.461,3.976-41.911-39.876,23.953L0,1033.258Z" transform="translate(0 -875.819)" fill="#f27173"/>
      <rect id="Rectangle_154" data-name="Rectangle 154" width="20.399" height="48.173" transform="matrix(0.996, 0.094, -0.094, 0.996, 97.393, 126.11)" fill="#f48587"/>
      <ellipse id="Ellipse_25" data-name="Ellipse 25" cx="3.347" cy="3.347" rx="3.347" ry="3.347" transform="translate(100.421 162.548)" fill="#f27173"/>
    </g>
  </svg>
  