<svg xmlns="http://www.w3.org/2000/svg" width="102.616" height="102.616" viewBox="0 0 102.616 102.616">
  <path id="lan" d="M43.046,2A10.226,10.226,0,0,0,32.785,12.262V27.654A10.226,10.226,0,0,0,43.046,37.916h5.131V48.177H2V58.439H22.523V68.7H17.392A10.226,10.226,0,0,0,7.131,78.962V94.355a10.226,10.226,0,0,0,10.262,10.262H37.916A10.226,10.226,0,0,0,48.177,94.355V78.962A10.226,10.226,0,0,0,37.916,68.7H32.785V58.439H73.831V68.7H68.7A10.226,10.226,0,0,0,58.439,78.962V94.355A10.226,10.226,0,0,0,68.7,104.616H89.224A10.226,10.226,0,0,0,99.485,94.355V78.962A10.226,10.226,0,0,0,89.224,68.7H84.093V58.439h20.523V48.177H58.439V37.916H63.57A10.226,10.226,0,0,0,73.831,27.654V12.262A10.226,10.226,0,0,0,63.57,2H43.046m0,10.262H63.57V27.654H43.046V12.262m-25.654,66.7H37.916V94.355H17.392V78.962m51.308,0H89.224V94.355H68.7Z" transform="translate(-2 -2)" fill="#b5cfea"/>
</svg>
