<svg xmlns="http://www.w3.org/2000/svg" xmlns:xlink="http://www.w3.org/1999/xlink" width="1920" height="724" viewBox="0 0 1920 724">
  <defs>
    <clipPath id="clip-path">
      <rect id="bg" width="1920" height="724" transform="translate(0 40)" fill="#387efa"/>
    </clipPath>
  </defs>
  <g id="Groupe_1" data-name="Groupe 1" transform="translate(0 -40)">
    <rect id="bg-2" data-name="bg" width="1920" height="724" transform="translate(0 40)" fill="#00a2e7"/>
    <g id="Groupe_de_masques_1" data-name="Groupe de masques 1" clip-path="url(#clip-path)">
      <path id="Rectangle" d="M519.715,0H999.6c7,0,10.267,4.16,7.3,9.291L506.324,875.709C503.359,880.84,495.283,885,488.285,885H8.4c-7,0-10.267-4.16-7.3-9.291L501.676,9.291C504.641,4.16,512.717,0,519.715,0Z" transform="translate(772 -24)" fill="#d2d3e5" opacity="0.233" style="mix-blend-mode: multiply;isolation: isolate"/>
      <path id="Rectangle-2" data-name="Rectangle" d="M519.715,0H999.6c7,0,10.267,4.16,7.3,9.291L506.324,875.709C503.359,880.84,495.283,885,488.285,885H8.4c-7,0-10.267-4.16-7.3-9.291L501.676,9.291C504.641,4.16,512.717,0,519.715,0Z" transform="translate(39 -460)" fill="#d2d3e5" opacity="0.233" style="mix-blend-mode: multiply;isolation: isolate"/>
    </g>
  </g>
</svg>
