<svg id="Groupe_445" data-name="Groupe 445" xmlns="http://www.w3.org/2000/svg" width="100%" height="100%" viewBox="0 0 233.233 261.399">
    <g id="Groupe_396" data-name="Groupe 396" transform="translate(130.896 119.68)" opacity="0.33">
      <g id="Groupe_395" data-name="Groupe 395" transform="translate(0)">
        <g id="Groupe_394" data-name="Groupe 394">
          <g id="Groupe_393" data-name="Groupe 393">
            <path id="Tracé_785" data-name="Tracé 785" d="M1105.814,2163.682a.178.178,0,0,0-.178.178v21.984a.178.178,0,0,0,.178.178" transform="translate(-1105.636 -2163.682)" fill="#acbcc9"/>
          </g>
        </g>
      </g>
    </g>
    <path id="Tracé_786" data-name="Tracé 786" d="M724.926,2618.294a5.379,5.379,0,0,0,5.364,5.363H952.795a5.38,5.38,0,0,0,5.364-5.363v-14.27a5.38,5.38,0,0,0-5.364-5.364H730.29a5.38,5.38,0,0,0-5.364,5.364" transform="translate(-724.926 -2362.259)" fill="#b7cbd2" opacity="0.49"/>
    <path id="Tracé_787" data-name="Tracé 787" d="M1301.724,2379.742l-6.934,5.215-.71-4.3Z" transform="translate(-1221.218 -2202.085)" fill="#af6a46"/>
    <g id="Groupe_403" data-name="Groupe 403" transform="translate(25.01 167.846)">
      <g id="Groupe_399" data-name="Groupe 399" transform="translate(15.449 3.606)">
        <path id="Tracé_788" data-name="Tracé 788" d="M1270.121,2364l.344,2.189.307,1.975,44.074-5.978a4.617,4.617,0,0,0,.519-.118l.207-.075a1.569,1.569,0,0,0,.244-.107,2.979,2.979,0,0,0,.4-.213.214.214,0,0,0,.063-.043,1.676,1.676,0,0,0,.207-.144c.038-.032.075-.056.113-.088v-.006l-.369-4.777-18.583,2.482-.212.038-6.79,1.207-6.521,1.163Z" transform="translate(-1270.119 -2356.616)" fill="#486381"/>
        <path id="Tracé_789" data-name="Tracé 789" d="M1265.963,2365.351a2.666,2.666,0,0,0,.044-1.069A2.79,2.79,0,0,1,1265.963,2365.351Z" transform="translate(-1218.448 -2362.225)" fill="#ffb32a"/>
        <path id="Tracé_790" data-name="Tracé 790" d="M1270.121,2366.189l.307,1.975,44.074-5.978a4.609,4.609,0,0,0,.519-.118l.207-.075a1.566,1.566,0,0,0,.244-.107,2.187,2.187,0,0,0,.4-.213.217.217,0,0,0,.063-.043,1.694,1.694,0,0,0,.207-.144c.038-.032.075-.056.113-.088v-.006l-.369-4.777a3.673,3.673,0,0,1-3.132,4.051c-2.414.4-15.551,2.095-27.2,3.57l-.007.006c-1.025.125-2.038.257-3.032.381C1277.531,2365.258,1273.053,2365.82,1270.121,2366.189Z" transform="translate(-1269.776 -2356.616)" fill="#3a5566"/>
        <path id="Tracé_791" data-name="Tracé 791" d="M1437.019,2383.2l-1.406.25.654,4.166,1.415-.192Z" transform="translate(-1435.613 -2376.065)" fill="#212121"/>
        <g id="Groupe_398" data-name="Groupe 398" transform="translate(35.938 1.415)">
          <g id="Groupe_397" data-name="Groupe 397">
            <path id="Tracé_792" data-name="Tracé 792" d="M1305.887,2363.262l.576,3.673a.238.238,0,0,1-.211.261h0a.238.238,0,0,1-.281-.184l-.576-3.673a.239.239,0,0,1,.211-.263h0A.239.239,0,0,1,1305.887,2363.262Z" transform="translate(-1305.392 -2362.755)" fill="#212121"/>
            <path id="Tracé_793" data-name="Tracé 793" d="M1302.109,2362.669l.576,3.673a.237.237,0,0,1-.211.261h0a.239.239,0,0,1-.281-.184l-.576-3.674a.24.24,0,0,1,.211-.262h0A.239.239,0,0,1,1302.109,2362.669Z" transform="translate(-1300.6 -2362.323)" fill="#212121"/>
            <path id="Tracé_794" data-name="Tracé 794" d="M1298.33,2362.076l.576,3.673a.238.238,0,0,1-.211.262h0a.238.238,0,0,1-.281-.185l-.576-3.673a.239.239,0,0,1,.211-.262h0A.239.239,0,0,1,1298.33,2362.076Z" transform="translate(-1295.808 -2361.888)" fill="#212121"/>
          </g>
        </g>
      </g>
      <g id="Groupe_402" data-name="Groupe 402" transform="translate(0 0)">
        <path id="Tracé_795" data-name="Tracé 795" d="M1441.26,2352.067c-.935,2.671-.262,8.009,1.909,10.535,1.482,1.723,1.638,3.962-.286,6.926l.452,2.883,5.512-.864,5.512-.865-.453-2.883c-2.493-.652-2.38-3.853-1.952-6.141a3.451,3.451,0,0,1,2.563-2.605l2.445-.658-.673-4.291-3.6.174a4.746,4.746,0,0,1-4.488-3.015c-.844-1.8-.468-5.116,1.92-7.576l-1.617-.51S1442.195,2349.4,1441.26,2352.067Z" transform="translate(-1440.849 -2343.177)" fill="#585857"/>
        <g id="Groupe_400" data-name="Groupe 400" transform="translate(2.033 24.621)">
          <path id="Tracé_796" data-name="Tracé 796" d="M1450.553,2436.658h0l.452,2.884,5.512-.865,5.512-.864-.452-2.884h0Z" transform="translate(-1450.552 -2434.93)" fill="#444"/>
          <path id="Tracé_797" data-name="Tracé 797" d="M1471.534,2438.759h0l.452,2.882,1.716-.269,1.716-.27-.452-2.882h0Z" transform="translate(-1469.573 -2437.338)" fill="#666"/>
          <path id="Tracé_798" data-name="Tracé 798" d="M1462.954,2437.072h0l.452,2.883.628-.1.628-.1-.452-2.883h0Z" transform="translate(-1456.514 -2436.352)" fill="#666"/>
        </g>
        <g id="Groupe_401" data-name="Groupe 401" transform="translate(4.737)">
          <path id="Tracé_799" data-name="Tracé 799" d="M1442.621,2344.344l.654.208c-2.487,2.561-2.879,6.012-2,7.888a4.941,4.941,0,0,0,4.673,3.139l3.746-.182.554,3.532,1.977-.533-.673-4.291-3.6.174a4.746,4.746,0,0,1-4.488-3.015c-.844-1.8-.468-5.116,1.92-7.576l-1.617-.51S1443.309,2343.633,1442.621,2344.344Z" transform="translate(-1440.849 -2343.177)" fill="#444"/>
        </g>
      </g>
    </g>
    <path id="Tracé_800" data-name="Tracé 800" d="M1271.5,2357.837l18.583-2.483a3.48,3.48,0,0,0-1.745-.462,3.557,3.557,0,0,0-.575.044Z" transform="translate(-1203.512 -2183.903)" fill="#486381"/>
    <path id="Tracé_801" data-name="Tracé 801" d="M1265.97,2356.616l.369,4.777c.087-.075.168-.15.25-.231a3.036,3.036,0,0,0,.219-.25c.012-.006.012-.013.018-.019.057-.076.113-.164.169-.244a2.753,2.753,0,0,0,.169-.3c.043-.094.081-.188.119-.288s.063-.187.088-.282a.079.079,0,0,0,.006-.037,2.788,2.788,0,0,0,.044-1.07,2.546,2.546,0,0,0-.219-.719.49.49,0,0,0-.057-.113c0-.012,0-.018-.012-.024a1.546,1.546,0,0,0-.131-.22.818.818,0,0,0-.1-.156,1.61,1.61,0,0,0-.156-.187,1.532,1.532,0,0,0-.144-.156,2.249,2.249,0,0,0-.182-.163,1.855,1.855,0,0,0-.175-.137,1.954,1.954,0,0,0-.237-.157A.128.128,0,0,0,1265.97,2356.616Z" transform="translate(-1179.402 -2185.164)" fill="#3a5566"/>
    <path id="Tracé_802" data-name="Tracé 802" d="M1147.2,2301.835a4.806,4.806,0,0,0,3.033-.38l.006-.007a10.228,10.228,0,0,0,4.746-3.9.983.983,0,0,0,.075-.106l6.715-1.1.213-.038,16.262-2.9a3.624,3.624,0,0,1,.575-.044,3.477,3.477,0,0,1,1.745.463.136.136,0,0,1,.037.024,2.1,2.1,0,0,1,.238.157,2.16,2.16,0,0,1,.175.137,2.4,2.4,0,0,1,.181.163,1.772,1.772,0,0,1,.144.156,1.7,1.7,0,0,1,.157.187.845.845,0,0,1,.1.157,1.567,1.567,0,0,1,.132.219c.012.006.012.012.012.024a.479.479,0,0,1,.057.113,2.543,2.543,0,0,1,.219.719,2.8,2.8,0,0,1-.044,1.069.076.076,0,0,1-.007.038c-.025.094-.056.188-.087.281s-.075.194-.119.288a2.7,2.7,0,0,1-.169.3c-.056.082-.112.168-.168.244-.007.006-.007.012-.019.018a2.809,2.809,0,0,1-.219.25c-.081.082-.163.156-.25.231v.005l15.563-1.438s28.143-22.321,13.105-26.373c0,0-29.744,22.159-39.2,21.815s-12.881-1.813-16.526.007c-2.464,1.231-4.2,4.026-5.421,6.1a16.765,16.765,0,0,1-1.413,2.213C1146.661,2301.36,1146.767,2301.686,1147.2,2301.835Z" transform="translate(-1094.002 -2122.374)" fill="#af6a46"/>
    <path id="Tracé_803" data-name="Tracé 803" d="M1177.988,2279.859l-18.476,24.033,4.754-.438s10.7-1.5,16.858-10.728-1.562-13.988-1.562-13.988Z" transform="translate(-1066.889 -2128.184)" fill="#7a3c25"/>
    <path id="Tracé_804" data-name="Tracé 804" d="M785.166,2460.662s-15.876,13.326-19.864,19.006c0,0,2.544,7.277-8.091,14.19a118.073,118.073,0,0,1-13.522,4.482c-5.773,1.368-.531,17.548,20.435,9.723s25.676-37.526,24.157-47.4Z" transform="translate(-559.757 -2261.291)" fill="#fbba82"/>
    <path id="Tracé_805" data-name="Tracé 805" d="M1072.765,2563.447c13.493.992,27,1.982,40.45,3.089,3.482.288,7,.275,10.422.284,5.33.013,10.634-.022,15.921-.075,4.364-.045,9.022-.262,13.633-.249a1.552,1.552,0,0,1,.908-.133c11.093.54,22.186,1.015,33.282,1.539q11.179.528,22.361,1.09l1.066.053-.1-1.187c-12.993-.9-26-1.809-38.951-2.824-3.486-.271-7-.245-10.412-.239-5.324.008-10.614.066-15.892.141-4.415.063-9.134.307-13.8.3a2.54,2.54,0,0,1-.707.044c-.382-.021-.765-.04-1.147-.06-1.43-.023-2.854-.073-4.257-.165l-.1-.01-.109-.011-.042-.006c-.058-.006-.116-.016-.168-.026l-.016,0c-.039-.007-.072-.016-.108-.025-9.11-.465-18.225-.9-27.337-1.368q-11.18-.573-22.362-1.179c-.866-.049-1.743-.094-2.624-.138" transform="translate(-1070.886 -2335.651)" fill="#ffe495"/>
    <path id="Tracé_806" data-name="Tracé 806" d="M1071.006,2601.419l.215.015c1.015.056,2.024.1,3.035.143q3.538.135,7.058.22,8.1.2,16.153.294l-.139-1.588c-5.343.12-10.669.262-15.945.456C1078.256,2601.073,1074.073,2601.084,1071.006,2601.419Z" transform="translate(-957.1 -2363.608)" fill="#ffe495"/>
    <path id="Tracé_807" data-name="Tracé 807" d="M1073.782,2596.66c-.665.038-2.167.107-3.292.192.24.023.539.054.937.083.924.07,1.853.133,2.779.188q3.631.217,7.261.378c21.85.992,43.712,1.533,65.451,2.043l-.069-.788c-6.742-.043-30.954-.136-31-1.544-.031-.954,10.452-1.064,12.524-1.147,6.007-.242,12.08-.428,18.187-.566l-.056-.636q-19.025.265-37.937.667C1096.914,2595.792,1085.068,2596.022,1073.782,2596.66Z" transform="translate(-1006.413 -2359.48)" fill="#ffe495"/>
    <path id="Tracé_808" data-name="Tracé 808" d="M1070.088,2577.2l.075.859c4.913.505,9.783,1.125,14.55,1.73,10.3,1.309,20.491,2.73,30.746,4.082,6.635.875,13.477,1.871,20.4,2.276,4.881.285,9.769.46,14.635.612,19.427.606,38.807.9,58.074,1.1l-.039-.45q-15.99-.374-32.014-.85c-13.254-.4-26.657-.741-39.966-1.523-2.116-.124-8.591-.3-8.87-1.207-.082-.25.876-.408,1.492-.483,2.35-.29,5.117-.392,7.705-.5,7.351-.323,14.844-.52,22.335-.7q17.622-.422,35.349-.724c4.118-.075,9-.416,13.428-.181l-.038-.43c-.656-.031-1.309-.064-1.955-.1q-10.248-.554-20.5-1.063c.78.065,1.1.422.5.536a1.873,1.873,0,0,1-.507.05c-2.218.158-5.05.079-7.351.114q-9.947.152-19.874.333c-7.752.146-15.493.3-23.183.518-6.342.178-12.671.406-19.192.353-10.805-.09-21.558-1.9-32.118-2.993q-6.82-.71-13.693-1.352" transform="translate(-1067.96 -2346.558)" fill="#ffe495"/>
    <path id="Tracé_809" data-name="Tracé 809" d="M1132.424,2591.395c-7.8-.6-15.545-1.758-23.039-2.764-10.354-1.39-20.68-2.833-31.158-4.093-2.858-.343-5.744-.685-8.648-.989l.349,3.987c18.865,1.683,37.742,3.264,56.768,4.448,11.469.714,22.778,1.333,34.159,1.523,10.406.175,20.874.5,31.34.822l15.856-.268-.068-.774c-20.234-.2-40.632-.477-61.055-1.191C1142.127,2591.927,1137.231,2591.766,1132.424,2591.395Z" transform="translate(-1067.302 -2351.202)" fill="#ffe495"/>
    <path id="Tracé_810" data-name="Tracé 810" d="M1168.937,2570.846c6.247.56,12.509,1.273,18.542,1.93,5.315.578,10.541,1.3,15.851,1.871a139.479,139.479,0,0,0,17.741.6c14.734-.294,29.346-.736,44.09-1.023,5.15-.1,10.489-.392,15.839-.225q-12.749-.639-25.5-1.26-11.193.19-22.47.267c-7.626.055-16.272.367-24.139-.27-13.325-1.08-26.695-2.045-40.055-3.016" transform="translate(-1166.886 -2341.083)" fill="#ffe495"/>
    <path id="Tracé_811" data-name="Tracé 811" d="M1571.29,2630.853l2.726-.046c-.914-.048-1.828-.092-2.741-.14Z" transform="translate(-1567.891 -2385.677)" fill="#ffe495"/>
    <path id="Tracé_812" data-name="Tracé 812" d="M1431.7,2624.773l.064.737q7.565.393,15.135.776l25.133-.424c-4.827-.1-9.656-.2-14.5-.327Q1444.629,2625.195,1431.7,2624.773Z" transform="translate(-1428.454 -2381.364)" fill="#ffe495"/>
    <path id="Tracé_813" data-name="Tracé 813" d="M1245.042,2605.883c-18.53-1.174-36.972-2.678-55.374-4.3l.119,1.373c11.325,1.631,23.424,2.907,35.023,3.44,12.794.59,25.626.878,38.423,1.392,3.178.127,6.359.265,9.538.4l22.72-.383c-5.261-.142-10.511-.26-15.733-.325C1268.27,2607.334,1256.612,2606.616,1245.042,2605.883Z" transform="translate(-1186.967 -2364.398)" fill="#ffe495"/>
    <path id="Tracé_814" data-name="Tracé 814" d="M1357.7,2613.155c-10.7-.646-21.648-1.744-32.054-3.2l.279,3.189q13.518.437,27.013.795c10.967.282,21.859.437,32.819.754l9.029-.152q-8.741-.35-17.477-.669C1370.8,2613.642,1364.223,2613.549,1357.7,2613.155Z" transform="translate(-1322.749 -2370.524)" fill="#ffe495"/>
    <path id="Tracé_815" data-name="Tracé 815" d="M1074.547,2551.167c7.407.971,14.826,1.935,22.321,2.8,2.408.279,4.835.559,7.276.816l-.346-3.959-1.52-.129Z" transform="translate(-964.728 -2327.167)" fill="#ffe495"/>
    <path id="Tracé_816" data-name="Tracé 816" d="M1171.532,2552.794l-62.062,1.046q-12.747.329-25.528.615c-3.063.07-6.546.288-9.955.305q9.134.526,18.271,1.021a.45.45,0,0,1,.266-.121,1.843,1.843,0,0,1,.506-.054c2.208-.166,5.036-.1,7.334-.144q9.925-.194,19.83-.415c7.735-.178,15.457-.367,23.127-.615,6.325-.2,12.634-.459,19.146-.432,10.791.044,21.58,1.809,32.154,2.865,4.076.407,8.168.805,12.272,1.172l-.077-.879c-4.441-.458-8.846-1-13.167-1.528C1186.243,2554.721,1178.892,2553.753,1171.532,2552.794Z" transform="translate(-1067.327 -2328.7)" fill="#ffe495"/>
    <path id="Tracé_817" data-name="Tracé 817" d="M1144.515,2560.82a139.134,139.134,0,0,0-17.727-.523c-14.7.355-29.273.858-43.982,1.207-3.105.074-6.277.218-9.482.289q9.853.53,19.707,1.049l1.083.076q10.363-.209,20.8-.328c7.612-.086,16.232-.435,24.106.17,12.836.987,25.711,1.87,38.579,2.752l-.1-1.153c-5.766-.515-11.533-1.147-17.1-1.731C1155.073,2562.073,1149.832,2561.367,1144.515,2560.82Z" transform="translate(-1037.856 -2334.141)" fill="#ffe495"/>
    <path id="Tracé_818" data-name="Tracé 818" d="M1075.838,2550.629l1.52.128-.013-.153Z" transform="translate(-938.289 -2327.098)" fill="#fcb962"/>
    <path id="Tracé_819" data-name="Tracé 819" d="M1079.888,2552.441l-5.614.095c7.36.958,14.711,1.927,22.117,2.837,4.321.531,8.726,1.071,13.167,1.528l-.073-.838c-2.44-.257-4.867-.537-7.276-.816C1094.714,2554.375,1087.3,2553.412,1079.888,2552.441Z" transform="translate(-970.069 -2328.441)" fill="#fcb962"/>
    <path id="Tracé_820" data-name="Tracé 820" d="M1359.293,2621.842l.069.787q12.926.415,25.833.762c4.844.127,9.673.228,14.5.328l19.429-.328c-10.959-.318-21.851-.472-32.818-.754Q1372.815,2622.29,1359.293,2621.842Z" transform="translate(-1356.117 -2379.219)" fill="#fcb962"/>
    <path id="Tracé_821" data-name="Tracé 821" d="M1309.359,2610.141c-11.6-.535-23.7-1.809-35.022-3.44l.076.873c10.406,1.454,21.359,2.552,32.055,3.2,6.522.4,13.1.486,19.608.718q8.733.31,17.477.669l13.768-.232q-4.768-.195-9.538-.395C1334.986,2611.018,1322.154,2610.731,1309.359,2610.141Z" transform="translate(-1271.516 -2368.142)" fill="#fcb962"/>
    <path id="Tracé_822" data-name="Tracé 822" d="M1185.437,2602.856c-19.026-1.185-37.9-2.765-56.768-4.448l.075.852c18.4,1.62,36.844,3.125,55.374,4.3,11.571.733,23.229,1.45,34.718,1.594,5.222.065,10.471.183,15.733.325l16.368-.275c-10.466-.328-20.934-.648-31.34-.822C1208.215,2604.19,1196.906,2603.57,1185.437,2602.856Z" transform="translate(-1126.043 -2362.075)" fill="#fcb962"/>
    <path id="Tracé_823" data-name="Tracé 823" d="M1135.533,2588.492c-6.928-.4-13.769-1.4-20.4-2.277-10.256-1.351-20.442-2.771-30.746-4.082-4.767-.606-9.637-1.224-14.551-1.73l.074.844c2.9.3,5.79.646,8.648.989,10.479,1.259,20.8,2.7,31.158,4.093,7.494,1.006,15.243,2.163,23.039,2.764,4.807.372,9.7.533,14.5.7,20.422.715,40.821.99,61.054,1.192l-.069-.786c-19.267-.2-38.646-.49-58.074-1.1C1145.3,2588.952,1140.414,2588.776,1135.533,2588.492Z" transform="translate(-1067.629 -2348.901)" fill="#fcb962"/>
    <path id="Tracé_824" data-name="Tracé 824" d="M1101.772,2592.917c-7.491.178-14.984.376-22.335.7-2.588.112-5.355.215-7.705.5-.616.075-1.573.233-1.492.483.279.9,6.754,1.083,8.87,1.207,13.31.782,26.713,1.127,39.967,1.523q16.02.476,32.013.852l-.068-.784c-21.738-.51-43.6-1.051-65.451-2.044q-3.63-.165-7.261-.377c-.926-.055-1.855-.119-2.778-.188-.4-.029-.7-.061-.937-.084,1.125-.084,2.627-.153,3.292-.192,11.285-.637,23.132-.868,34.789-1.13q18.89-.426,37.936-.667l-.062-.705c-4.427-.235-9.31.1-13.428.181Q1119.417,2592.517,1101.772,2592.917Z" transform="translate(-1010.517 -2357.335)" fill="#fcb962"/>
    <path id="Tracé_825" data-name="Tracé 825" d="M1070.747,2598.948c.042,1.408,24.254,1.5,31,1.544l-.069-.792q-8.057-.1-16.154-.295-3.519-.086-7.058-.22-1.515-.057-3.034-.143l-.215-.015c3.067-.335,7.25-.345,10.377-.459,5.275-.193,10.6-.336,15.945-.456l-.077-.877c-6.107.139-12.18.324-18.187.567C1081.2,2597.884,1070.716,2597.994,1070.747,2598.948Z" transform="translate(-961.308 -2361.216)" fill="#fcb962"/>
    <path id="Tracé_826" data-name="Tracé 826" d="M1072.636,2569.438c4.581.419,9.146.879,13.693,1.353,10.559,1.1,21.312,2.9,32.118,2.992,6.52.055,12.85-.174,19.192-.352,7.69-.216,15.43-.373,23.183-.518q9.921-.183,19.874-.333c2.3-.035,5.133.044,7.351-.113a1.908,1.908,0,0,0,.507-.051c.594-.113.276-.471-.5-.536q10.25.518,20.5,1.063.969.052,1.955.1l-.075-.852-1.066-.053q-11.183-.576-22.361-1.09c-11.1-.524-22.189-1-33.282-1.54a1.544,1.544,0,0,0-.909.133c-4.611-.014-9.268.2-13.633.249-5.287.053-10.59.089-15.92.075-3.421-.008-6.939,0-10.422-.283-13.45-1.107-26.957-2.1-40.45-3.091" transform="translate(-1070.508 -2338.794)" fill="#fcb962"/>
    <path id="Tracé_827" data-name="Tracé 827" d="M1168.838,2569.718c13.36.971,26.73,1.936,40.055,3.016,7.867.637,16.513.324,24.139.27q11.268-.079,22.47-.267,12.748.617,25.5,1.26c-5.351-.167-10.689.124-15.839.225-14.744.287-29.355.729-44.09,1.023a139.479,139.479,0,0,1-17.741-.6c-5.31-.568-10.536-1.293-15.851-1.871-6.033-.657-12.295-1.37-18.542-1.93" transform="translate(-1166.886 -2341.083)" fill="#fcb962"/>
    <path id="Tracé_828" data-name="Tracé 828" d="M1073.123,2558.2c.881.045,1.757.089,2.624.138q11.18.62,22.362,1.18c9.112.467,18.227.9,27.337,1.368l.108.025.016,0c.052.01.11.019.168.027l.042.006.109.01c.035,0,.068.008.1.01,1.4.093,2.827.143,4.257.166l1.147.059a2.493,2.493,0,0,0,.707-.043c4.67,0,9.389-.242,13.8-.3,5.277-.075,10.568-.134,15.891-.142,3.415-.005,6.926-.033,10.412.24,12.955,1.015,25.958,1.92,38.951,2.824l-.073-.838c-12.868-.883-25.744-1.764-38.58-2.752-7.874-.606-16.495-.257-24.106-.17q-10.431.117-20.8.328l-1.083-.076q-9.854-.517-19.708-1.049c3.205-.071,6.377-.215,9.482-.289,14.709-.349,29.281-.852,43.982-1.208a139.135,139.135,0,0,1,17.727.524c5.317.546,10.559,1.251,15.882,1.809,5.569.583,11.336,1.215,17.1,1.73l-.077-.878q-6.156-.552-12.272-1.173c-10.574-1.057-21.363-2.821-32.154-2.865-6.513-.026-12.822.227-19.147.431-7.67.249-15.392.438-23.128.616q-9.9.226-19.829.415c-2.3.045-5.126-.023-7.334.145a1.8,1.8,0,0,0-.506.052.454.454,0,0,0-.266.121q-9.138-.5-18.271-1.02c3.408-.018,6.891-.235,9.954-.3q12.78-.288,25.528-.616l-40.437.681" transform="translate(-1071.345 -2331.553)" fill="#fcb962"/>
    <path id="Tracé_829" data-name="Tracé 829" d="M1525.436,2628.364c.914.048,1.828.092,2.742.14l12.32-.208q-7.57-.382-15.136-.776Z" transform="translate(-1522.053 -2383.374)" fill="#fcb962"/>
    <path id="Tracé_830" data-name="Tracé 830" d="M1321.632,2555.325s1.777,6.84,16.742,3.383,16.421-3.962,16.421-3.962Z" transform="translate(-1281.682 -2330.128)" fill="#ef5f00" opacity="0.32"/>
    <path id="Tracé_831" data-name="Tracé 831" d="M1032.132,2139.692l-48.371,37.375s-2.49-18.914-3.419-40.555c-.979-22.8-.224-48.641,7-58.579,9.75-13.422,18.864-9.661,23.545-6.083a19.386,19.386,0,0,1,3.28,3.136Z" transform="translate(-867.345 -1974.351)" fill="#385672"/>
    <path id="Tracé_832" data-name="Tracé 832" d="M1090.057,2071.85a8.62,8.62,0,0,1-1.088,2.281s-18.879-5.948-22.432,25.135-5.069,42.931-5.069,42.931l-1.958-5.686c-.979-22.8-.223-48.641,7-58.579C1076.261,2064.511,1085.375,2068.273,1090.057,2071.85Z" transform="translate(-946.514 -1974.351)" fill="#486381"/>
    <path id="Tracé_833" data-name="Tracé 833" d="M981.225,1812.174s-5.165,11.243,5.622,21.422c0,0,3.494,3.343,3.646,5.166s-1.671,11.7,1.368,10.939,5.317-4.1,6.685-2.887,9.723,7.141,15.041,4.558,9.268-9.268,11.7-6.837,11.091,13.825,13.218,13.218,8.356-12.458,8.356-12.458-10.179-8.66-11.395-20.207-5.621-15.041-18.231-14.737S981.225,1812.174,981.225,1812.174Z" transform="translate(-882.069 -1785.47)" fill="#af6a46"/>
    <path id="Tracé_834" data-name="Tracé 834" d="M983.669,1882.468s5.179,4.444,9.229,6.1,6.837,7.008,5.3,8.489-9.047,8.2-9.047,8.2l1.3,2,11.679-11.053s-5.982-5.868-8.261-11.566S983.669,1882.468,983.669,1882.468Z" transform="translate(-838.326 -1837.456)" fill="#7a3c25"/>
    <path id="Tracé_835" data-name="Tracé 835" d="M1096.869,1853.846s11.742-.5,17.743-2.475,15.269,2.963,15.269,2.963-14.783-8.28-23.268-9.42-10.841,6.761-10.841,6.761Z" transform="translate(-996.161 -1810.689)" fill="#7a3c25"/>
    <path id="Tracé_836" data-name="Tracé 836" d="M1006.742,1822.145s19.593,6.075,23.125,8.469c0,0-.684-4.9,6.267-5.7s5.355,7.064,5.355,7.064,7.748,6.235,12.306,3.573c0,0-2.269-23.218-8.318-23.172S1004.079,1815.552,1006.742,1822.145Z" transform="translate(-896.147 -1786.969)" fill="#5f5e5a"/>
    <path id="Tracé_837" data-name="Tracé 837" d="M1023.117,1800.558s26.429-6.586,36.264-3.468c0,0-2.242-16.253-4.977-17.772s-38.327,18.41-38.327,18.41S1020.088,1800.148,1023.117,1800.558Z" transform="translate(-904.276 -1762.717)" fill="#51504c"/>
    <path id="Tracé_838" data-name="Tracé 838" d="M955.077,1940.489a35.385,35.385,0,0,0,13.75-12.04l7.824,6.305L957.888,1946Z" transform="translate(-805.176 -1871.891)" fill="#fff"/>
    <path id="Tracé_839" data-name="Tracé 839" d="M842.27,2321.1s-62.429,39.881-73.824,63.126,14.585,36.692,45.351,23.018,67.228-22.562,67.228-22.562a21.563,21.563,0,0,0-2.507-17.766l27.119-1.377s5.926-15.725,4.786-23.018S842.27,2321.1,842.27,2321.1Z" transform="translate(-688.281 -2159.177)" fill="#486381"/>
    <path id="Tracé_840" data-name="Tracé 840" d="M765.547,2336.385s9.344,9.8,31.449,18.459,24.84,27.575,24.84,27.575l3.874-5.7s9.427-22.271,2.329-25.561S765.547,2336.385,765.547,2336.385Z" transform="translate(-608.354 -2170.362)" fill="#3a5566"/>
    <path id="Tracé_841" data-name="Tracé 841" d="M766.279,1941.81a73.191,73.191,0,0,1-18.111,12.4s-4.824,16.256-4.14,20.7,2.849,72.356,2.849,72.356,6.267,4.786,19.941,8.2,54.922,12.192,57.657,15.61c0,0,9.458-68.482-22.448-105.4C802.027,1965.684,776.225,1936.851,766.279,1941.81Z" transform="translate(-597.66 -1881.247)" fill="#ff7a02"/>
    <path id="Tracé_842" data-name="Tracé 842" d="M889.015,2453.47a28.634,28.634,0,0,0-4.33-5.479s-72.071,11.292-89.22,26.322c0,0,8.2-13.1,30.652-23.473s86.58,1.046,75.822-11.441c0,0,12.138.781,11.078,12.852Z" transform="translate(-698.777 -2245.734)" fill="#3a5566"/>
    <path id="Tracé_843" data-name="Tracé 843" d="M817.976,2479.658l13.584-2.293s8.2,2.886,4.558,12.61l-13.7,3.114-.157-.916a41.455,41.455,0,0,0-4.289-12.515Z" transform="translate(-628.788 -2273.511)" fill="#af6a46"/>
    <path id="Tracé_844" data-name="Tracé 844" d="M774.241,2464.529s3.648,7.7-.341,13.385c0,0,2.544,7.277-8.091,14.19a34.8,34.8,0,0,1-9.8,3.95c-5.773,1.366-4.254,18.079,16.712,10.255s25.676-36.387,24.157-46.262C796.879,2460.047,783.889,2458.3,774.241,2464.529Z" transform="translate(-571.469 -2260.676)" fill="#212121"/>
    <path id="Tracé_845" data-name="Tracé 845" d="M1319.615,2379.7s-1.311,6.289,3.076,6.175,12.592-.284,12.876-3.077-1.253-6.323-4.387-5.3S1320.7,2375.739,1319.615,2379.7Z" transform="translate(-1261.897 -2200.315)" fill="#f2b891"/>
    <path id="Tracé_846" data-name="Tracé 846" d="M752.139,2206.958s53.722,8.208,77.509-5.881l-1.785-9.546s-18.065,18.132-75.724,6.509Z" transform="translate(-603.717 -2064.377)" fill="#e9dfde"/>
    <path id="Tracé_847" data-name="Tracé 847" d="M743.962,2279.067s52.868,13.287,79.152,4.838l.284,12.215s-28.612,5.345-79.208-10Z" transform="translate(-595.273 -2128.424)" fill="#e9dfde"/>
    <path id="Tracé_848" data-name="Tracé 848" d="M939.176,2031.516a40.281,40.281,0,0,1,5.328,38.365c-8.224,22.158-31.611,32.331-31.611,32.331l-1.092-31.973Z" transform="translate(-764.066 -1947.301)" fill="#ef5f00" opacity="0.59"/>
    <g id="Groupe_404" data-name="Groupe 404" transform="translate(88.096 0)">
      <path id="Tracé_849" data-name="Tracé 849" d="M1011.945,1755.07s-4.49-27.752,20.683-35.47,37.952,9.417,41.166,22.97C1073.794,1742.57,1038.748,1754.561,1011.945,1755.07Z" transform="translate(-1005.592 -1717.678)" fill="#ffe18a"/>
      <path id="Tracé_850" data-name="Tracé 850" d="M1021.93,1770.109s1.049-23.06,14.528-29.437,30.846,2.3,39.2,18.083C1075.654,1758.755,1048.7,1768.251,1021.93,1770.109Z" transform="translate(-1010.214 -1732.959)" fill="#fcb962"/>
      <path id="Tracé_851" data-name="Tracé 851" d="M1158.872,1840.213s-32.256,11.893-37.642,10.089,4.779-5.578,4.779-5.578Z" transform="translate(-1119.656 -1807.332)" fill="#ffe18a"/>
    </g>
    <path id="Tracé_852" data-name="Tracé 852" d="M1150.023,2214.1s-15.862,28.36-18.367,32.459c-1.366,2.237-15.241,12.146-28.146,20.856l-.015.01c-10.783,7.271-20.876,13.7-22.432,14.118-2.579.685-6.977,10.138-12.607,16.2v0l-.005.005a34.154,34.154,0,0,1-8.609,5.911c-8.433,3.419-21.167.9-17.406-1.5s23.927-19.256,28.484-21.875,44.555-44.366,47.363-46.722,15.952-24,15.952-24Z" transform="translate(-1001.808 -2077.572)" fill="#af6a46"/>
    <path id="Tracé_853" data-name="Tracé 853" d="M1041.754,2212.9s7.9,3.38,9.229,8.735c.907,3.654-.737,9.1-.737,9.1l9.345-16.646-15.787-4.535Z" transform="translate(-911.375 -2077.569)" fill="#7a3c25"/>
    <path id="Tracé_854" data-name="Tracé 854" d="M1250.19,2425.18c-10.783,7.271-20.876,13.7-22.431,14.118-2.579.685-6.978,10.137-12.607,16.2.213-.452,7.116-14.913,10.555-17.452S1249.553,2425.488,1250.19,2425.18Z" transform="translate(-1148.503 -2235.329)" fill="#7a3c25"/>
    <path id="Tracé_855" data-name="Tracé 855" d="M978.43,2020.015c-.606,4.647-.875,10.287-2.52,15.967a30.552,30.552,0,0,1-10.7,16.091l-7.444,14.282s-6.833-3.5-10.023-3.648-17.472-8.055-17.472-8.055,13.064-49.833,27.346-56.974S979.647,2010.748,978.43,2020.015Z" transform="translate(-800.424 -1921.448)" fill="#fff"/>
    <path id="Tracé_856" data-name="Tracé 856" d="M950.826,2144.507a30.55,30.55,0,0,1-10.7,16.09l5.928-15.119C948.42,2145.99,948.918,2145.078,950.826,2144.507Z" transform="translate(-775.34 -2029.972)" fill="#e9dfde"/>
    <path id="Tracé_857" data-name="Tracé 857" d="M862.053,2483.174s5.953,5.8,3.454,13.4l-3.357.764a39.018,39.018,0,0,0-4.446-13.432Z" transform="translate(-668.516 -2277.762)" fill="#7a3c25"/>
  </svg>
  