<svg xmlns="http://www.w3.org/2000/svg" xmlns:xlink="http://www.w3.org/1999/xlink" width="100%" height="100%" viewBox="0 0 288.452 191.209">
    <defs>
      <filter id="Tracé_887" x="1.534" y="49.307" width="177.671" height="25.447" filterUnits="userSpaceOnUse">
        <feOffset dx="7" dy="7" input="SourceAlpha"/>
        <feGaussianBlur stdDeviation="2.5" result="blur"/>
        <feFlood flood-opacity="0.2"/>
        <feComposite operator="in" in2="blur"/>
        <feComposite in="SourceGraphic"/>
      </filter>
    </defs>
    <g id="Groupe_651" data-name="Groupe 651" transform="translate(0 0)" opacity="0.598">
      <path id="Tracé_870" data-name="Tracé 870" d="M703.962,591.188l146.332,27.171V524.815H702.409S703.962,590.024,703.962,591.188Z" transform="translate(-691.626 -474.758)" fill="#ebeff2"/>
      <path id="Tracé_871" data-name="Tracé 871" d="M1139.332,525.806l70.255-17.078V422.946l-38.039-38.038-32.216,47.354S1139.72,526.194,1139.332,525.806Z" transform="translate(-980.664 -382.205)" fill="#b3bbc3"/>
      <path id="Tracé_872" data-name="Tracé 872" d="M670.552,426.785l50.527-38.561,2.992-5.319,139.948-5.983,43.547,43.547h-9.64L861.36,383.9l-30.25,44.544S671.051,426.286,670.552,426.785Z" transform="translate(-670.552 -376.922)" fill="#ff6918"/>
      <path id="Tracé_873" data-name="Tracé 873" d="M703.889,550.935,850.6,552.468l71.107-8.186" transform="translate(-692.605 -487.636)" fill="none" stroke="#000" stroke-miterlimit="10" stroke-width="3"/>
      <path id="Tracé_874" data-name="Tracé 874" d="M1083.281,578.63l-71.106,8.188L967.314,585.2l-19.184-.69" transform="translate(-854.178 -510.358)" fill="none" stroke="#000" stroke-miterlimit="10" stroke-width="3"/>
      <path id="Tracé_875" data-name="Tracé 875" d="M755.256,589.078l-17.167-.619-34.2-1.229" transform="translate(-692.606 -516.048)" fill="none" stroke="#000" stroke-miterlimit="10" stroke-width="3"/>
      <path id="Tracé_876" data-name="Tracé 876" d="M1083.281,611.2l-71.106,9.6-44.861-2.521L948.13,617.2" transform="translate(-854.178 -531.904)" fill="none" stroke="#000" stroke-miterlimit="10" stroke-width="3"/>
      <path id="Tracé_877" data-name="Tracé 877" d="M755.256,618.081l-17.167-.968-34.2-1.922" transform="translate(-692.606 -534.544)" fill="none" stroke="#000" stroke-miterlimit="10" stroke-width="3"/>
      <path id="Tracé_878" data-name="Tracé 878" d="M1083.281,650.34l-71.106,10.415-44.861-3.845-19.184-1.645" transform="translate(-854.178 -557.797)" fill="none" stroke="#000" stroke-miterlimit="10" stroke-width="3"/>
      <path id="Tracé_879" data-name="Tracé 879" d="M755.256,648.354l-17.167-1.472-34.2-2.931" transform="translate(-692.606 -553.57)" fill="none" stroke="#000" stroke-miterlimit="10" stroke-width="3"/>
      <path id="Tracé_880" data-name="Tracé 880" d="M1083.281,685.49l-71.106,11.494L967.314,691.9l-19.184-2.173" transform="translate(-854.178 -581.05)" fill="none" stroke="#000" stroke-miterlimit="10" stroke-width="3"/>
      <path id="Tracé_881" data-name="Tracé 881" d="M755.256,676.132l-17.167-1.946-34.2-3.875" transform="translate(-692.606 -571.008)" fill="none" stroke="#000" stroke-miterlimit="10" stroke-width="3"/>
      <path id="Tracé_882" data-name="Tracé 882" d="M1083.281,716.65l-71.106,13.386-44.861-5.994-19.184-2.565" transform="translate(-854.178 -601.663)" fill="none" stroke="#000" stroke-miterlimit="10" stroke-width="3"/>
      <path id="Tracé_883" data-name="Tracé 883" d="M755.256,705.134l-17.167-2.295-34.2-4.569" transform="translate(-692.606 -589.504)" fill="none" stroke="#000" stroke-miterlimit="10" stroke-width="3"/>
      <line id="Ligne_5" data-name="Ligne 5" x1="70.285" y2="5.796" transform="translate(158.668 45.063)" fill="none" stroke="#000" stroke-miterlimit="10" stroke-width="3"/>
      <path id="Tracé_884" data-name="Tracé 884" d="M855.482,640.859V585.983H886.84v61.271S856.307,640.859,855.482,640.859Z" transform="translate(-792.888 -515.223)" fill="#fff"/>
      <path id="Tracé_885" data-name="Tracé 885" d="M967.314,650.151V585.373H948.128v61.478S967.314,649.326,967.314,650.151Z" transform="translate(-854.177 -514.819)" fill="#54514e"/>
      <path id="Tracé_886" data-name="Tracé 886" d="M804.93,637.786v-51.74H822.1V640.9S805.218,638.074,804.93,637.786Z" transform="translate(-759.447 -515.264)" fill="#54514e"/>
      <line id="Ligne_6" data-name="Ligne 6" x2="12.503" transform="translate(63.938 74.998)" fill="none" stroke="#000" stroke-miterlimit="10" stroke-width="4"/>
      <line id="Ligne_7" data-name="Ligne 7" x2="12.503" transform="translate(79.321 74.998)" fill="none" stroke="#000" stroke-miterlimit="10" stroke-width="4"/>
      <line id="Ligne_8" data-name="Ligne 8" x2="12.503" transform="translate(63.938 78.61)" fill="none" stroke="#000" stroke-miterlimit="10" stroke-width="4"/>
      <line id="Ligne_9" data-name="Ligne 9" x2="12.503" transform="translate(79.321 78.61)" fill="none" stroke="#000" stroke-miterlimit="10" stroke-width="4"/>
      <line id="Ligne_10" data-name="Ligne 10" x2="12.503" transform="translate(63.938 82.356)" fill="none" stroke="#000" stroke-miterlimit="10" stroke-width="4"/>
      <line id="Ligne_11" data-name="Ligne 11" x2="12.503" transform="translate(79.321 82.356)" fill="none" stroke="#000" stroke-miterlimit="10" stroke-width="4"/>
      <line id="Ligne_12" data-name="Ligne 12" x2="12.503" transform="translate(63.938 85.967)" fill="none" stroke="#000" stroke-miterlimit="10" stroke-width="4"/>
      <line id="Ligne_13" data-name="Ligne 13" x2="12.503" transform="translate(79.321 85.967)" fill="none" stroke="#000" stroke-miterlimit="10" stroke-width="4"/>
      <line id="Ligne_14" data-name="Ligne 14" x2="12.503" transform="translate(63.938 89.579)" fill="none" stroke="#000" stroke-miterlimit="10" stroke-width="4"/>
      <line id="Ligne_15" data-name="Ligne 15" x2="12.503" transform="translate(79.321 89.579)" fill="none" stroke="#000" stroke-miterlimit="10" stroke-width="4"/>
      <line id="Ligne_16" data-name="Ligne 16" x2="12.503" transform="translate(63.938 93.191)" fill="none" stroke="#000" stroke-miterlimit="10" stroke-width="4"/>
      <line id="Ligne_17" data-name="Ligne 17" x2="12.503" transform="translate(79.321 93.191)" fill="none" stroke="#000" stroke-miterlimit="10" stroke-width="4"/>
      <line id="Ligne_18" data-name="Ligne 18" x2="12.503" transform="translate(63.938 96.936)" fill="none" stroke="#000" stroke-miterlimit="10" stroke-width="4"/>
      <line id="Ligne_19" data-name="Ligne 19" x2="12.503" transform="translate(79.321 96.936)" fill="none" stroke="#000" stroke-miterlimit="10" stroke-width="4"/>
      <line id="Ligne_20" data-name="Ligne 20" x2="12.503" transform="translate(63.938 100.548)" fill="none" stroke="#000" stroke-miterlimit="10" stroke-width="4"/>
      <line id="Ligne_21" data-name="Ligne 21" x2="12.503" transform="translate(79.321 100.548)" fill="none" stroke="#000" stroke-miterlimit="10" stroke-width="4"/>
      <line id="Ligne_22" data-name="Ligne 22" x2="12.503" transform="translate(63.938 104.16)" fill="none" stroke="#000" stroke-miterlimit="10" stroke-width="4"/>
      <line id="Ligne_23" data-name="Ligne 23" x2="12.503" transform="translate(79.321 104.16)" fill="none" stroke="#000" stroke-miterlimit="10" stroke-width="4"/>
      <g transform="matrix(1, 0, 0, 1, 0, 0)" filter="url(#Tracé_887)">
        <path id="Tracé_887-2" data-name="Tracé 887" d="M676.589,524.2l-.029,7.576s6.619,1.018,7.383-2.291c4.328,5.091,8.4,0,8.4,0s6.11,5.6,10.183,0c7.383,6.873,13.492-.255,13.492-.255s6.364,7.637,11.965.255c4.073,5.346,10.946,2.291,11.455.509,3.819,7.128,11.2,1.782,11.2,0,4.837,7.892,11.71,0,11.71,0s6.873,10.183,14.511,0c5.091,6.619,11.2,3.564,11.965,0,4.582,5.855,14.51,5.346,16.8-1.273,4.328,6.874,13.238,7.128,16.038.509,5.6,7.637,15.02,5.855,17.565.255a53.643,53.643,0,0,0-.146-5.413Z" transform="translate(-674.53 -474.27)" fill="#fff"/>
      </g>
      <line id="Ligne_24" data-name="Ligne 24" y1="4.321" x2="140.281" transform="translate(50.528 6.981)" fill="none" stroke="#000" stroke-miterlimit="10" stroke-width="2" opacity="0.5"/>
      <path id="Tracé_888" data-name="Tracé 888" d="M804.875,601.36h17.2v2.476L805.7,641.214h16.338V644H804.852v-7.776l14.412-32.2H804.875S804.811,601.3,804.875,601.36Z" transform="translate(-759.392 -525.394)" fill="#b3bbc3"/>
      <path id="Tracé_889" data-name="Tracé 889" d="M967.271,609.224l-19.206.028v3.9l18.377,36.568H948.1v2.851h19.18V644.73l-16.407-32.2,16.4-.029S967.335,609.16,967.271,609.224Z" transform="translate(-854.135 -530.597)" fill="#b3bbc3"/>
      <path id="Tracé_890" data-name="Tracé 890" d="M737.711,448.142l30.573-31.31H782.65S737.711,447.4,737.711,448.142Z" transform="translate(-714.979 -403.324)" fill="#fff" opacity="0.25"/>
      <path id="Tracé_946" data-name="Tracé 946" d="M1058.6,751.065h-.865v.006c-6.232.116-9.4,9.223-9.5,18.473h0c0,.039,0,.078,0,.116q0,.336,0,.672c0,.071,0,.142,0,.214q0,.342.015.683c0,.068,0,.136.007.2q.012.345.029.688c0,.066.007.132.011.2q.019.344.044.686c.005.066.01.132.015.2q.027.34.059.678.01.1.02.2.034.334.073.664.012.1.025.209.04.324.086.645c.011.073.021.147.032.22.031.208.064.415.1.621.013.077.025.154.039.231q.051.3.108.594c.016.082.031.165.047.247.038.189.077.376.118.562.019.088.038.176.058.263.04.178.083.354.126.53.023.093.046.185.069.278.043.167.087.332.133.5.027.1.053.2.081.292.045.156.092.309.139.463.031.1.062.2.094.3.047.145.095.287.143.429.036.1.071.21.108.314.048.133.1.263.147.394.041.109.082.217.124.324.049.122.1.241.149.361s.092.221.14.33.1.22.151.33.1.224.157.333.1.2.152.3.115.225.175.335c.05.091.1.18.152.269.064.111.127.223.193.331.05.083.1.162.154.243.069.109.138.219.21.324.051.075.1.146.155.218.075.106.15.212.228.314.051.067.1.129.155.194.081.1.162.2.246.3.051.06.1.115.156.173.087.1.173.193.263.285.052.053.106.1.158.152.093.09.185.18.28.265.052.046.107.089.16.134.1.082.2.165.3.242.055.041.111.078.165.117.1.073.2.148.31.215.057.036.115.067.173.1.106.064.213.129.322.186.059.031.12.057.18.086.11.054.219.109.332.155.064.027.13.047.195.072.111.042.222.086.336.121.071.022.145.038.218.057.11.03.219.062.332.086.087.018.177.028.265.043s.2.037.3.049q.289.033.588.039v.009h140.206V751.065Z" transform="translate(-920.405 -624.43)" fill="#8999a5"/>
      <path id="Tracé_947" data-name="Tracé 947" d="M1474.089,751.065h-.746c-12.829,0-12.829,37.868,0,37.868h.746C1486.918,788.933,1486.918,751.065,1474.089,751.065Z" transform="translate(-1195.258 -624.43)" fill="#e7e7e7"/>
      <path id="Tracé_948" data-name="Tracé 948" d="M1477.325,758.554h-.62c-10.662,0-10.662,32.8,0,32.8h.62C1487.986,791.349,1487.986,758.554,1477.325,758.554Z" transform="translate(-1198.558 -629.384)" fill="#54514e"/>
      <g id="Groupe_420" data-name="Groupe 420" transform="translate(141.741 129.115)">
        <path id="Tracé_949" data-name="Tracé 949" d="M1203,759.108l-.023.023a2.152,2.152,0,0,0,1.673,3.607h62.082c.265-.006.533-.017.8-.037a2.159,2.159,0,0,0-.25-4.309h-62.613A2.291,2.291,0,0,0,1203,759.108Z" transform="translate(-1164.123 -758.391)" fill="#afc0d1"/>
        <path id="Tracé_950" data-name="Tracé 950" d="M1108.952,762.738a2.594,2.594,0,0,0-2.018-4.347h-14.8l0,0c-.265,0-.533.015-.8.037a2.157,2.157,0,0,0,.249,4.306Z" transform="translate(-1089.322 -758.391)" fill="#afc0d1"/>
      </g>
      <g id="Groupe_432" data-name="Groupe 432" transform="translate(164.143 6.371)">
        <path id="Tracé_951" data-name="Tracé 951" d="M1306.677,893.739s1.161,5.36.355,6.846c-.216.4,4.38,3.436,5.809,2.493.05-.8-.846-1.883-.915-3.453-.124-2.787.092-6.411.122-7.256" transform="translate(-1255.512 -724.278)" fill="#ffc39a"/>
        <path id="Tracé_952" data-name="Tracé 952" d="M1246.188,898.024s.928,6.04-.509,6.664c-.3.131,6.049,2.048,7.506,1.989.379-.016.164-.364-.21-.824a4.648,4.648,0,0,1-1.047-3.642c.314-2.085.818-4.5.858-5.5" transform="translate(-1215.152 -727.152)" fill="#ffc39a"/>
        <g id="Groupe_422" data-name="Groupe 422" transform="translate(17.97 176.757)">
          <g id="Groupe_421" data-name="Groupe 421">
            <path id="Tracé_953" data-name="Tracé 953" d="M1208.652,924.94l-.05-.008c.178-2.7.828-4.084,5.724-4.132,1.758-.017,5.2-.868,5.757-2.289l.007-.016a1.033,1.033,0,0,1,1.7-.141,3.192,3.192,0,0,0,2.8,1.567c.972.013,1.938-.081,2.908-.074,2.612.018,2.246,3.235,1.857,4.628-.127.454-1.41.557-1.817.62-1.244.19-2.514.275-3.774.348-3.155.181-8.334-.059-11.495-.151A26.451,26.451,0,0,1,1208.652,924.94Z" transform="translate(-1208.602 -917.971)" fill="#121c21"/>
          </g>
        </g>
        <g id="Groupe_423" data-name="Groupe 423" transform="translate(44.474 176.225)">
          <path id="Tracé_954" data-name="Tracé 954" d="M1299.677,918.966a2.44,2.44,0,0,0-.678-.171,2.809,2.809,0,0,1-1.744-.855,3.815,3.815,0,0,0-2.063-1.323c-1.083-.246-3-.552-3.451.758,0,.008-.967,2.808-.967,2.808l-.576.056c-2.755,0-3.253,3.267-3.29,4.391a.35.35,0,0,1,.061,0,33.578,33.578,0,0,0,6.654.385c3.7,0,6.7-.2,6.7-.438,0-.009.008-.106.019-.251C1300.54,923.09,1300.33,919.282,1299.677,918.966Z" transform="translate(-1286.907 -916.399)" fill="#121c21"/>
        </g>
        <path id="Tracé_955" data-name="Tracé 955" d="M1231.016,543.836s32.218,5.62,38.4.871c0,0-6.112-35.283-6.112-37.487s-4.322-23.734-4.322-23.734l-10.951-1.01-10.848,41.139Z" transform="translate(-1205.46 -453.121)" fill="#d56f46"/>
        <path id="Tracé_956" data-name="Tracé 956" d="M1205.91,491.286l-4.032-1.724s-21.011,16.166-24.23,17.005l2.56,6.884s14.516-1.954,23.121-9.218S1205.91,491.286,1205.91,491.286Z" transform="translate(-1170.155 -457.808)" fill="#fff"/>
        <path id="Tracé_957" data-name="Tracé 957" d="M1164.126,506.889s.466-.447-.728-.984a4.953,4.953,0,0,0-2.348-.385c-.889.057-2.205.238-2.575.769-.042.06,2.591,15.625,2.591,15.625h6.459Z" transform="translate(-1157.47 -468.356)" fill="#ad9f86"/>
        <path id="Tracé_958" data-name="Tracé 958" d="M1284.69,646.02l-9.074,8.049s.911,27.31,1.733,23.794Z" transform="translate(-1234.964 -561.31)" fill="#5b383b"/>
        <g id="Groupe_424" data-name="Groupe 424" transform="translate(24.174 81.827)">
          <path id="Tracé_959" data-name="Tracé 959" d="M1296.036,639.614l.075-.321-4-.154Z" transform="translate(-1270.05 -638.586)" fill="#78474a"/>
          <path id="Tracé_960" data-name="Tracé 960" d="M1227.713,686.78c2.257-5.892,4.522-24.4,5.392-32.95.412-4.052,1.54-16.327,1.54-16.327l-7.6,47.835a7.417,7.417,0,0,0-.031,2.437l4.478,29.271S1225.062,693.7,1227.713,686.78Z" transform="translate(-1226.932 -637.503)" fill="#343d76"/>
        </g>
        <path id="Tracé_961" data-name="Tracé 961" d="M1263.8,640.839l-3.348-7.982-25.809,1.573-7.6,47.835a7.418,7.418,0,0,0-.031,2.437l6.434,42.06,7.952-.327,1.363-34.264c-.041-3.6-1.4-7.277-.581-10.793l4.255-18.209c2.134,9.916,4.968,24.249,5.852,34.175a141.459,141.459,0,0,1,0,27.938l8.159,1.261s4.709-34.45,2.957-46S1263.8,640.839,1263.8,640.839Z" transform="translate(-1202.758 -552.602)" fill="#343d76"/>
        <g id="Groupe_425" data-name="Groupe 425" transform="translate(40.445 90.781)">
          <path id="Tracé_962" data-name="Tracé 962" d="M1323.653,768.078c.027,1.107.08,2.134.164,3.057.934,10.275-4.237,38.115-5.455,44.463l2.575.4s4.709-34.45,2.957-46C1323.8,769.4,1323.724,768.757,1323.653,768.078Z" transform="translate(-1303.686 -732.836)" fill="#192057"/>
          <path id="Tracé_963" data-name="Tracé 963" d="M1277.361,672.733a26.563,26.563,0,0,0-2.358-8.776s.106,4.107.688,8.687c.866,6.826,2.934,13.056,5.573,26.74C1279.452,685.711,1277.811,679.5,1277.361,672.733Z" transform="translate(-1275.003 -663.957)" fill="#343d76"/>
        </g>
        <path id="Tracé_964" data-name="Tracé 964" d="M1246.3,634.43l-1.749,11.012c1.89-.28,4.075-.86,5.306-2.059a12.211,12.211,0,0,0,3.144-5.67h11.138s3.319,10.01,10.9,9.567c.224-3.886.419-6.441.419-6.441l-3.348-7.982Z" transform="translate(-1214.415 -552.602)" fill="#192057"/>
        <path id="Tracé_965" data-name="Tracé 965" d="M1252.878,523.393l-3.644-36.828a47.547,47.547,0,0,1,19.821-.839c10.2,1.957,13.481,5.311,13.481,5.311s-8.234,29.491-8.234,33.684,1.6,14.5,1.6,14.5l-25.807-1.2Z" transform="translate(-1217.511 -454.81)" fill="#fff"/>
        <path id="Tracé_966" data-name="Tracé 966" d="M1259.5,538.346l2.781-14.624-3.643-36.828a46.43,46.43,0,0,1,8.912-1.423,48.057,48.057,0,0,0-18.319,1.094l3.644,36.828-2.781,14.624,25.807,1.2s-.006-.039-.017-.111Z" transform="translate(-1217.511 -454.811)" fill="#efefef"/>
        <path id="Tracé_967" data-name="Tracé 967" d="M1308.2,485.452s-2.785,34.093-2.785,44.893,3.133,17.421,13.219,16.329l-2.277-32.245s-1.036-19.435,3.434-23.722C1319.787,490.707,1312.693,485.3,1308.2,485.452Z" transform="translate(-1254.675 -455.087)" fill="#f77f0f"/>
        <path id="Tracé_968" data-name="Tracé 968" d="M1335.405,496.106c-3.719,9.73-2.6,33.492-2.6,42.6,0,6.148,1.016,10.94,3.751,13.728l-2.186-30.955s-1.036-19.435,3.434-23.722C1337.8,497.757,1336.843,497.024,1335.405,496.106Z" transform="translate(-1272.692 -462.137)" fill="#dd750e"/>
        <path id="Tracé_969" data-name="Tracé 969" d="M1248.03,482.476s-2.428,57.9-7.655,59.77a25.467,25.467,0,0,1-9.359,1.59s7.441-48.426,6.166-58.962Z" transform="translate(-1205.46 -453.121)" fill="#f77f0f"/>
        <g id="Groupe_426" data-name="Groupe 426" transform="translate(25.556 31.138)">
          <path id="Tracé_970" data-name="Tracé 970" d="M1240.953,641.541a26.3,26.3,0,0,1-9.22.683c-.439,2.992-.717,4.8-.717,4.8a25.465,25.465,0,0,0,9.359-1.59c1.049-.376,1.985-3.008,2.811-6.974C1242.4,640.258,1241.651,641.368,1240.953,641.541Z" transform="translate(-1231.016 -587.447)" fill="#dd750e"/>
          <path id="Tracé_971" data-name="Tracé 971" d="M1234.115,540.239c2.318-8.834,6.787-40.477,7.9-52.5l-2.786.616C1240.2,496.383,1236.118,526.393,1234.115,540.239Z" transform="translate(-1233.066 -487.742)" fill="#ef9d65"/>
        </g>
        <path id="Tracé_972" data-name="Tracé 972" d="M1311.149,511.442c-.075.983-.153,2.025-.234,3.112l9.724.819a30.7,30.7,0,0,1,.637-3.078Z" transform="translate(-1258.315 -472.283)" fill="#ffb500"/>
        <path id="Tracé_973" data-name="Tracé 973" d="M1259.337,510.194c.066-1.093.126-2.135.182-3.116l-10.3-.868c-.035.971-.087,2.015-.156,3.119Z" transform="translate(-1217.399 -468.821)" fill="#ffb500"/>
        <path id="Tracé_974" data-name="Tracé 974" d="M1309.055,540.516c-.073,1.026-.145,2.067-.216,3.113l9.69.817c.015-.987.044-2.041.1-3.124Z" transform="translate(-1256.942 -491.516)" fill="#ffb500"/>
        <path id="Tracé_975" data-name="Tracé 975" d="M1257.056,539.279c.077-1.054.151-2.094.221-3.113l-10.369-.874c-.094,1.014-.195,2.051-.3,3.106Z" transform="translate(-1215.773 -488.06)" fill="#ffb500"/>
        <path id="Tracé_976" data-name="Tracé 976" d="M1340.386,500.218c6.29,0,16.849,34.97,14.021,38.333-3.787,4.5-10.841-10.175-10.092-9.17,1.7,2.288-1.363-2.328-2.443-4.521a62.724,62.724,0,0,1-3.917-11.887S1338.945,500.218,1340.386,500.218Z" transform="translate(-1276.204 -464.857)" fill="#fff"/>
        <path id="Tracé_977" data-name="Tracé 977" d="M1342.476,500.182c-.962.147-1.361,3.559-1.361,3.8,2.291-10.429,17.624,30.554,14.98,33.7a2.519,2.519,0,0,1-.833.669c.938.366.471,1.075,1.235.167C1359.325,535.152,1348.688,499.232,1342.476,500.182Z" transform="translate(-1278.293 -464.821)" fill="#e7e7e7"/>
        <path id="Tracé_978" data-name="Tracé 978" d="M1163.568,509.109s-1.83.348-1.749.512c.154.314,2.074.443,2.074.443Z" transform="translate(-1159.682 -470.739)" fill="#f8ecd1"/>
        <path id="Tracé_979" data-name="Tracé 979" d="M1161.824,509.343s3.469.429,4.6-.655l6.114,32.591H1171.3Z" transform="translate(-1159.687 -470.461)" fill="#d1c19f"/>
        <path id="Tracé_980" data-name="Tracé 980" d="M1194.711,505.455s-21.861,3.915-28.639,3.5-7.837-2.7-7.837-2.7-.98,1.3,2.591,15.625,6.777,23.131,6.777,23.131l39.861,1.468Z" transform="translate(-1157.231 -468.322)" fill="#e7e7e7"/>
        <path id="Tracé_981" data-name="Tracé 981" d="M1158.108,545.146s-.9.163-1.433,1.491-1.506,3.145-1.044,4.636,2.453,3.284,3.085,3.89,6.194-1.749,6.291-3.017-2.089.432-3.133.432,2.624-.978,2.478-1.747-3.134.443-3.644.233,1.791-.234,1.9-.944-2.754-.36-2.754-.36-1.15-1.755-.84-2.052,1.447.4,1.787-.371S1159.037,544.516,1158.108,545.146Z" transform="translate(-1155.51 -494.5)" fill="#f2b891"/>
        <path id="Tracé_982" data-name="Tracé 982" d="M1281.426,569.5a84.058,84.058,0,0,1-8.877-1.655c-2.04-.7-4.591.734-6.231.42s-.947,1.258.547,1.258,3.17-.489,3.17,0-2.587.664-4.481.28-1.9-.385-1.9.21,2.769,1.852,6.45,1.4c0,0,.856.158.583.419s-4.482-.489-5.648,0-.437,1.363,2.332,1.573,3.352.035,3.534.489-4.117-.35-4.336.314,5.72,1.922,6.813,1.747,7.154-1.781,7.154-1.781Z" transform="translate(-1227.053 -509.466)" fill="#f2b891"/>
        <path id="Tracé_983" data-name="Tracé 983" d="M1285.163,468.612c-.1,1.209.035,2.423.011,3.635a6.313,6.313,0,0,1-.918,3.479c1.647,1.044,3.757,1.046,5.731,1.01a5.156,5.156,0,0,0,2.9-.627.357.357,0,0,0,.175-.22c.015-.111-.072-.209-.149-.293a5.744,5.744,0,0,1-1.347-3,16.762,16.762,0,0,1-.093-3.306Z" transform="translate(-1240.68 -443.949)" fill="#f2b891"/>
        <path id="Tracé_984" data-name="Tracé 984" d="M1287.131,473.06l6.115.351A4.616,4.616,0,0,1,1287.131,473.06Z" transform="translate(-1242.581 -446.892)" fill="#e58645"/>
        <g id="Groupe_429" data-name="Groupe 429" transform="translate(37.651 2.731)">
          <path id="Tracé_985" data-name="Tracé 985" d="M1274.617,429.437a7.776,7.776,0,0,0,.606,1.748c.926,1.842,2.93,2.349,4.915,2.5a29.506,29.506,0,0,0,3.448.051,5.951,5.951,0,0,0,1.934-.323c1.807-.714,2.518-2.779,2.888-4.62a40.634,40.634,0,0,0,.795-7.57,10.682,10.682,0,0,0-.461-3.725c-1.2-3.354-5.473-5.214-9.028-4.242a8.932,8.932,0,0,0-5.984,5.965c-.67,2.167-.183,4.555.282,6.713C1274.257,427.077,1274.35,428.282,1274.617,429.437Z" transform="translate(-1271.149 -409.887)" fill="#f7a466"/>
          <path id="Tracé_986" data-name="Tracé 986" d="M1303.388,417.5c-1.068-2.989-4.579-4.79-7.847-4.459,2.974.064,5.935,1.8,6.9,4.5a10.679,10.679,0,0,1,.46,3.725,40.613,40.613,0,0,1-.795,7.57c-.37,1.841-1.081,3.906-2.887,4.62a5.132,5.132,0,0,1-1.546.3c.186,0,.373-.008.56-.016a5.951,5.951,0,0,0,1.933-.323c1.807-.714,2.518-2.779,2.888-4.62a40.677,40.677,0,0,0,.795-7.57A10.694,10.694,0,0,0,1303.388,417.5Z" transform="translate(-1285.796 -409.891)" fill="#e58645"/>
          <path id="Tracé_987" data-name="Tracé 987" d="M1281.784,433.682c-1.985-.147-3.99-.654-4.915-2.5a7.754,7.754,0,0,1-.606-1.748c-.267-1.155-.359-2.36-.606-3.507-.465-2.157-.952-4.546-.282-6.713a8.932,8.932,0,0,1,5.984-5.965,7.24,7.24,0,0,1,1.146-.213,7.612,7.612,0,0,0-2.792.213,8.932,8.932,0,0,0-5.984,5.965c-.67,2.167-.183,4.555.282,6.713.247,1.147.339,2.352.606,3.507a7.772,7.772,0,0,0,.606,1.748c.926,1.842,2.93,2.349,4.915,2.5a29.364,29.364,0,0,0,2.984.065C1282.676,433.735,1282.23,433.715,1281.784,433.682Z" transform="translate(-1271.149 -409.889)" fill="#f2b891"/>
          <g id="Groupe_427" data-name="Groupe 427" transform="translate(17.148 11.404)">
            <path id="Tracé_988" data-name="Tracé 988" d="M1317.781,438.42a2.066,2.066,0,0,1,1.635-.908,1.447,1.447,0,0,1,1.113.839,2.882,2.882,0,0,1,.214,1.392,2.178,2.178,0,0,1-.483,1.436,1.888,1.888,0,0,1-1.369.506,5.664,5.664,0,0,1-1.48-.266Z" transform="translate(-1317.412 -437.506)" fill="#e58645"/>
            <path id="Tracé_989" data-name="Tracé 989" d="M1321.771,442.891c-.048.41-.278.722-.514.7s-.39-.378-.342-.788.277-.722.514-.7S1321.819,442.481,1321.771,442.891Z" transform="translate(-1319.724 -440.546)" fill="#e58645"/>
          </g>
          <g id="Groupe_428" data-name="Groupe 428" transform="translate(0 11.404)">
            <path id="Tracé_990" data-name="Tracé 990" d="M1269.718,438.42a2.064,2.064,0,0,0-1.635-.908,1.446,1.446,0,0,0-1.113.839,2.882,2.882,0,0,0-.215,1.392,2.179,2.179,0,0,0,.482,1.436,1.889,1.889,0,0,0,1.37.506,5.663,5.663,0,0,0,1.48-.266Z" transform="translate(-1266.749 -437.506)" fill="#e58645"/>
            <path id="Tracé_991" data-name="Tracé 991" d="M1270.547,442.891c.047.41.278.722.514.7s.389-.378.342-.788-.278-.722-.514-.7S1270.5,442.481,1270.547,442.891Z" transform="translate(-1269.256 -440.546)" fill="#e58645"/>
          </g>
          <path id="Tracé_992" data-name="Tracé 992" d="M1278.308,411.873a.6.6,0,0,1-.12-.366,5.1,5.1,0,0,0,1.49.4q-.03-.455-.06-.909a2.587,2.587,0,0,0,1.708.581l.164-1.37c1.17,0,2.508.379,2.964,1.412a3.412,3.412,0,0,1,.217,1.114l.406,5.024a8.813,8.813,0,0,0,1.774-3.233,13.061,13.061,0,0,0,.425-2.275c.211-1.884.156-3.981-1.142-5.41a8.16,8.16,0,0,0-3.709-1.945c-2.714-.856-5.734-1.634-8.354-.54a12.241,12.241,0,0,0-3.125,2.148l-1.714,1.463a1.348,1.348,0,0,1-.021.969l-.4,1.434a5.265,5.265,0,0,0-.276,2.413,5.326,5.326,0,0,0,.534,1.334,7.028,7.028,0,0,0,.6,1.125c.24.325.393.7.621,1.034a1.437,1.437,0,0,0,.977.676,9.62,9.62,0,0,1-.436-2.307c-.118-1.839.758-2.334,1.949-3.5a18.778,18.778,0,0,1,1.7-1.631C1275.689,410.625,1276.333,411.865,1278.308,411.873Z" transform="translate(-1267.897 -403.814)" fill="#263238"/>
          <path id="Tracé_993" data-name="Tracé 993" d="M1287.368,444.539c0,.418-.149.756-.332.756s-.332-.339-.332-.756.149-.757.332-.757S1287.368,444.121,1287.368,444.539Z" transform="translate(-1279.949 -430.255)"/>
          <path id="Tracé_994" data-name="Tracé 994" d="M1304.787,444.539c0,.418-.148.756-.332.756s-.332-.339-.332-.756.149-.757.332-.757S1304.787,444.121,1304.787,444.539Z" transform="translate(-1291.473 -430.255)"/>
          <path id="Tracé_995" data-name="Tracé 995" d="M1281.857,438.27s1.91-1.911,3.363-.2C1285.221,438.071,1283.892,435.364,1281.857,438.27Z" transform="translate(-1276.744 -425.718)"/>
          <path id="Tracé_996" data-name="Tracé 996" d="M1304.971,438.27s-1.91-1.911-3.363-.2C1301.608,438.071,1302.937,435.364,1304.971,438.27Z" transform="translate(-1289.81 -425.718)"/>
          <path id="Tracé_997" data-name="Tracé 997" d="M1294.224,451.709a1.177,1.177,0,0,0-.253.862.711.711,0,0,0,.476.43,2.072,2.072,0,0,0,.672.068.987.987,0,0,0,.319-.04.736.736,0,0,0,.395-.781,2.8,2.8,0,0,0-.264-.886c-.12-.277-.357-1.177-.715-1.028C1294.552,450.461,1294.371,451.447,1294.224,451.709Z" transform="translate(-1284.742 -434.578)" fill="#e58645"/>
          <path id="Tracé_998" data-name="Tracé 998" d="M1301.58,459.6a1.652,1.652,0,0,1-.438.635,2.233,2.233,0,0,1-.667.418,3.133,3.133,0,0,1-.774.182c-.132.013-.265.016-.4.023l-.4-.013,0-.031a2.969,2.969,0,0,1,.392-.12c.126-.039.249-.071.369-.1.117-.047.24-.059.349-.108.056-.022.114-.033.17-.053l.162-.065a1.345,1.345,0,0,0,.159-.066l.079-.034c.025-.014.049-.029.075-.041a2.776,2.776,0,0,0,.3-.168,3.6,3.6,0,0,0,.584-.466Z" transform="translate(-1288.022 -440.714)"/>
        </g>
        <g id="Groupe_431" data-name="Groupe 431" transform="translate(37.541)">
          <path id="Tracé_999" data-name="Tracé 999" d="M1286.7,406.74s-10.746-1.522-20.221.271C1265.173,394.707,1286.1,393.362,1286.7,406.74Z" transform="translate(-1266.424 -396.731)" fill="#f2a71b" fill-rule="evenodd"/>
          <path id="Tracé_1000" data-name="Tracé 1000" d="M1286.339,396.663s2.519,1.32,1.729,8.359l2.847,0s-.756-7.106,1.583-8.361C1291.559,395.871,1288.367,395.073,1286.339,396.663Z" transform="translate(-1279.599 -395.746)" fill="#fcc64c" fill-rule="evenodd"/>
          <path id="Tracé_1001" data-name="Tracé 1001" d="M1299.61,397.51a3.178,3.178,0,0,0-.839-.483c-1.915,1.309-1.734,6.9-1.609,8.844h.866S1297.272,398.766,1299.61,397.51Z" transform="translate(-1286.711 -396.593)" fill="#ef9403" fill-rule="evenodd"/>
          <path id="Tracé_1002" data-name="Tracé 1002" d="M1286.339,397.51a3.177,3.177,0,0,1,.839-.483c1.916,1.309,1.734,6.9,1.609,8.844h-.866S1288.677,398.766,1286.339,397.51Z" transform="translate(-1279.599 -396.593)" fill="#ef9403" fill-rule="evenodd"/>
          <g id="Groupe_430" data-name="Groupe 430" transform="translate(1.414 6.206)">
            <path id="Tracé_1003" data-name="Tracé 1003" d="M1286.636,423.489s-.92,2.732-2.751,3.039-9.839.807-10.962-.187a21.7,21.7,0,0,1-2.323-2.526A66.157,66.157,0,0,1,1286.636,423.489Z" transform="translate(-1270.601 -420.082)" fill="#f9b835" fill-rule="evenodd"/>
            <path id="Tracé_1004" data-name="Tracé 1004" d="M1293.035,416.731a1.346,1.346,0,1,1,1.1-1.336A1.236,1.236,0,0,1,1293.035,416.731Z" transform="translate(-1284.698 -414.08)" fill="#ffe67b" fill-rule="evenodd"/>
          </g>
        </g>
        <path id="Tracé_1005" data-name="Tracé 1005" d="M1326.354,574.724c-1.117-.616-14.164-5.963-14.164-5.963l-1.384,7.307s21.854,12.329,25.641,7.826a3.422,3.422,0,0,0,.467-1.979" transform="translate(-1258.243 -510.201)" fill="#fff"/>
      </g>
    </g>
  </svg>
  